<svg viewBox="0 0 14 14" xmlns="http://www.w3.org/2000/svg"><path d="m10.652174 1.117445-1.460768.573709-.8870582.913043v1.1464c-.038231-.0017-.2508524-.0081-.5217391-.01427v-.245074c0-.156522-.1043478-.26087-.2608696-.26087-.1565217 0-.2608695.104348-.2608695.26087v.239979c-.256458-.000562-.5165296.0038-.7826087.01427v-.254245c0-.156522-.1043479-.26087-.2608696-.26087s-.2608696.104348-.2608696.26087v.279211c-.3847873.02091-.7316614.04767-1.0434782.07897v-.358186c0-.156522-.1043478-.26087-.2608696-.26087-.1565217 0-.2608696.104348-.2608696.26087v.414742c-.3633678.04483-.6517721.08781-.7963653.110054h-.00102l-.00153.000509c-.093088.01526-.1568358.0296-.2445652.04484v-.465693c0-.156521-.1043478-.260869-.2608696-.260869-.1565217 0-.2608695.104348-.2608695.260869v.561991c-.6083087.118385-1.0388922.22069-1.3043456.29297v-.54212c0-.156522-.1043478-.26087-.2608695-.26087-.1565218 0-.2608696.104348-.2608696.26087v3.10445c.1826087-.130435.3391304-.260972.5217391-.36532v-1.657948c.2165116-.062228.6554159-.174077 1.3043479-.302649v1.100034c0 .05217.025985.07826.025985.130434.1565218-.07826.3131454-.13074.4957541-.182914v-1.142833c.1155566-.02046.2031402-.03997.3291441-.06063.1365341-.02101.3967502-.05917.7143341-.09935v.9375.05248h.025985c.1565217-.05217.3131455-.104246.4957542-.15642v-.891644c.3088075-.03166.6570305-.05908 1.0434782-.0805v.737262c.1565218-.02609.3391305-.05238.5217392-.07847v-.684782c.262986-.01069.5241261-.01486.7826087-.01427v.5946c.078261 0 .1567254-.02599.2088994-.02599h.3128397v-.563519c.265385.0061.4965592.0132.5217391.01427v.523267c.3391305 0 .6521739-.000102 1.0434782.02598v-1.330332c0-.156522.104348-.26087.26087-.26087h2.086956c.156522 0 .26087.104348.26087.26087v1.513247c.33913.02609.704348.07826 1.043478.130435v-2.530741l-.887059-.887058-1.460767-.599694zm0 1.069463c.156522 0 .260869.104348.260869.260869 0 .156522-.104347.26087-.260869.26087s-.26087-.104348-.26087-.26087c0-.156521.104348-.260869.26087-.260869zm-2.5042459 3.182405c-1.0956522.521739-2.1652174 1.122146-3.1304348 1.852581-1.4086956 1.017391-2.5826088 2.190999-3.9130436 3.860564l-.1044497.10445v1.695652h2.3218411l.025985-.07847c.1565217-.417391 1.2780571-2.60839 2.6606658-4.251868 1.2-1.434782 2.3742188-2.478159 3.3133491-3.15642-.4434781-.02609-.8086955-.02649-1.1739129-.02649zm2.0609709.07846c-.913043.52174-2.3478257 1.695551-3.7826083 3.41729-1.3043478 1.591308-2.3220449 3.521845-2.5307405 4.017497h2.8435802l.025985-.07847c.4956522-1.486956 1.1479281-2.89555 1.9305368-4.199898.8086958-1.304348 1.6957538-2.400102 2.3218408-3.104449-.260869-.02609-.521637-.02588-.808594-.05197zm-3.4177984.02599c-.9652174.130434-1.7217391.339334-2.2173913.469769-.8086956.234782-1.4347826.417187-2.2173914.834578-.4173913.234783-.8346807.495551-1.1998981.808594l-.1564198.130435v2.661175c1.2521739-1.513043 2.3737093-2.582914 3.7041441-3.574219.6521739-.495652 1.3565217-.912941 2.0869565-1.330333zm4.8785664.05248c-.6.678261-1.643784 1.851868-2.53074 3.338825-.756522 1.252173-1.3825073 2.608796-1.8520725 4.017492h2.5567255l.02599-.05197c.26087-1.173913.599796-2.322045.965014-3.443784.417391-1.278261.939436-2.556522 1.487262-3.782609-.208696-.02609-.417391-.05187-.652174-.07796zm1.173913.15642c-.573913 1.252174-1.095754 2.556216-1.539232 3.860564-.365218 1.095651-.678159 2.217594-.939029 3.339333h2.634681v-7.199898h-.15642z"/></svg>