<svg viewBox="0 0 50 50" xmlns="http://www.w3.org/2000/svg"><path d="m8.1875 0c-1.765625 0-3.1875 1.421875-3.1875 3.1875v7.71875h.8125c1.21875 0 2.304688.570313 3.09375 1.4375.769531-3.457031 5.726563-5.15625 15.09375-5.15625 10.558594 0 16.292969 1.804688 17.09375 5.3125.785156-.894531 1.9375-1.46875 3.21875-1.46875h.6875v-7.84375c0-1.765625-1.492187-3.1875-3.3125-3.1875zm15.8125 9.1875c-4.839844 0-12.988281.523438-13.1875 3.96875l-.71875 5.53125-.5625 4.09375-.40625 3.21875h-.9375c-.332031 0-.625.039063-.9375.09375-.164062.03125-.34375.078125-.5.125-.125.035156-.253906.082031-.375.125-.210937.078125-.398437.148438-.59375.25-.046875.023438-.078125.070313-.125.09375-.222656.128906-.453125.25-.65625.40625-.277344.214844-.519531.484375-.75.75-.042969.050781-.085937.074219-.125.125-.136719.175781-.261719.371094-.375.5625-.085937.144531-.179687.3125-.25.46875-.046875.101563-.082031.207031-.125.3125-.09375.246094-.191406.484375-.25.75-.015625.0625-.019531.125-.03125.1875-.054687.304688-.09375.613281-.09375.9375v6.8125h44v-6.8125c0-.324219-.039062-.632812-.09375-.9375-.011719-.0625-.019531-.125-.03125-.1875-.058594-.265625-.125-.503906-.21875-.75-.039062-.105469-.109375-.210937-.15625-.3125-.070312-.15625-.164062-.324219-.25-.46875-.113281-.191406-.234375-.386719-.375-.5625-.039062-.050781-.082031-.074219-.125-.125-.230469-.269531-.472656-.535156-.75-.75-.203125-.15625-.433594-.277344-.65625-.40625-.046875-.023437-.078125-.070312-.125-.09375-.195312-.105469-.382812-.171875-.59375-.25-.121094-.042969-.246094-.089844-.375-.125-.15625-.046875-.335937-.09375-.5-.125-.3125-.058594-.609375-.09375-.9375-.09375h-.9375l-.4375-3.40625-.40625-3.125-.84375-6.21875c-.226562-3.847656-12.691406-4.0625-15.1875-4.0625zm0 2c8.429688 0 12.839844 1.496094 13.21875 2.25l1 7.6875c-1.480469.25-5.875.875-13.21875.875s-11.738281-.621094-13.21875-.875l1.03125-7.78125c.023438-.429687 2.082031-2.15625 11.1875-2.15625zm-19.8125 1.71875c-1.195312 0-2.28125 1.085938-2.28125 2.28125v5.5c0 1.269531 1.066406 2.40625 2.28125 2.40625h1.5c1.269531 0 2.40625-1.0625 2.40625-2.28125v-5.5c0-1.269531-1.066406-2.40625-2.28125-2.40625zm40.125.125c-1.257812 0-2.28125 1.023438-2.28125 2.28125v5.5c0 1.261719 1.023438 2.28125 2.28125 2.28125h1.5c1.195313 0 2.28125-1.085937 2.28125-2.28125v-5.5c0-1.257812-1.023437-2.28125-2.28125-2.28125zm-24.71875 13.96875h10.8125c.6875 0 1.238281.40625 1.46875 1 .074219.183594.125.378906.125.59375v4.8125c0 .898438-.695312 1.59375-1.59375 1.59375h-10.8125c-.898437 0-1.59375-.695312-1.59375-1.59375v-4.8125c0-.214844.054688-.410156.125-.59375.230469-.59375.78125-1 1.46875-1zm-10.90625 4h4.625c.398438 0 .6875.289063.6875.6875v2.625c0 .398438-.289062.6875-.6875.6875h-4.625c-.398437 0-.6875-.289062-.6875-.6875v-2.625c0-.398437.289063-.6875.6875-.6875zm28 0h4.625c.398438 0 .6875.289063.6875.6875v2.625c0 .398438-.289062.6875-.6875.6875h-4.625c-.398437 0-.6875-.289062-.6875-.6875v-2.625c0-.398437.289063-.6875.6875-.6875zm-33.6875 9v5h44v-5zm0 7c0 1.652344 1.347656 3 3 3h4c1.652344 0 3-1.347656 3-3zm34 0c0 1.652344 1.347656 3 3 3h4c1.652344 0 3-1.347656 3-3z"/></svg>